<?xml version="1.0" encoding="UTF-8" standalone="no"?>
<svg
   xmlns:dc="http://purl.org/dc/elements/1.1/"
   xmlns:cc="http://creativecommons.org/ns#"
   xmlns:rdf="http://www.w3.org/1999/02/22-rdf-syntax-ns#"
   xmlns:svg="http://www.w3.org/2000/svg"
   xmlns="http://www.w3.org/2000/svg"
   id="svg4661"
   version="1.1"
   viewBox="0 0 109.93613 209.28424"
   height="209.28424mm"
   width="109.93613mm">
  <defs
     id="defs4655" />
  <metadata
     id="metadata4658">
    <rdf:RDF>
      <cc:Work
         rdf:about="">
        <dc:format>image/svg+xml</dc:format>
        <dc:type
           rdf:resource="http://purl.org/dc/dcmitype/StillImage" />
        <dc:title></dc:title>
      </cc:Work>
    </rdf:RDF>
  </metadata>
  <g
     transform="translate(-61.378248,-54.282029)"
     id="layer1">
    <g
       id="g4671"
       transform="matrix(0.35277777,0,0,-0.35277777,11.346317,294.78203)">
      <path
         d="M 142.823,680.732 H 297.638 V 621.607 H 142.823 Z m 0,-59.124 H 297.638 V 562.483 H 142.823 Z m 0,-59.125 H 297.638 V 503.358 H 142.823 Z m 0,-59.125 H 297.638 V 444.233 H 142.823 Z m 0,-59.124 H 297.638 V 385.109 H 142.823 Z m 0,-59.125 H 297.638 V 325.984 H 142.823 Z m 0,-59.125 H 297.638 V 266.859 H 142.823 Z m 0,-59.124 H 297.638 V 207.735 H 142.823 Z"
         style="fill:#384c93;fill-opacity:1;fill-rule:nonzero;stroke:none"
         id="path4673" />
      <path
         d="M 142.823,207.735 H 297.638 V 148.61 H 142.823 Z"
         style="fill:#374a99;fill-opacity:1;fill-rule:nonzero;stroke:none"
         id="path4675" />
      <path
         d="M 142.823,148.61 H 297.638 V 89.485 H 142.823 Z"
         style="fill:#384895;fill-opacity:1;fill-rule:nonzero;stroke:none"
         id="path4677" />
      <g
         id="g4679"
         transform="translate(452.4528,207.7349)">
        <path
           d="M 0,0 V 58.125"
           style="fill:none;stroke:#0016d1;stroke-width:2;stroke-linecap:butt;stroke-linejoin:miter;stroke-miterlimit:10;stroke-dasharray:none;stroke-opacity:1"
           id="path4681" />
      </g>
      <g
         id="g4683"
         transform="translate(452.4528,148.6102)">
        <path
           d="M 0,0 V 59.125"
           style="fill:none;stroke:#0016d1;stroke-width:2;stroke-linecap:butt;stroke-linejoin:miter;stroke-miterlimit:10;stroke-dasharray:none;stroke-opacity:1"
           id="path4685" />
      </g>
      <g
         id="g4687"
         transform="translate(452.4528,90.4856)">
        <path
           d="M 0,0 V 58.125"
           style="fill:none;stroke:#0016d1;stroke-width:2;stroke-linecap:butt;stroke-linejoin:miter;stroke-miterlimit:10;stroke-dasharray:none;stroke-opacity:1"
           id="path4689" />
      </g>
      <g
         id="g4691"
         transform="translate(297.6378,89.4856)">
        <path
           d="M 0,0 H 155.815"
           style="fill:none;stroke:#0016d1;stroke-width:2;stroke-linecap:butt;stroke-linejoin:miter;stroke-miterlimit:10;stroke-dasharray:none;stroke-opacity:1"
           id="path4693" />
      </g>
      <g
         id="g4695"
         transform="translate(298.6378,680.7323)">
        <path
           d="M 0,0 H 154.815"
           style="fill:none;stroke:#0016d1;stroke-width:2;stroke-linecap:butt;stroke-linejoin:miter;stroke-miterlimit:10;stroke-dasharray:none;stroke-opacity:1"
           id="path4697" />
      </g>
      <g
         id="g4699"
         transform="translate(452.4528,622.6076)">
        <path
           d="M 0,0 V 57.125"
           style="fill:none;stroke:#0016d1;stroke-width:2;stroke-linecap:butt;stroke-linejoin:miter;stroke-miterlimit:10;stroke-dasharray:none;stroke-opacity:1"
           id="path4701" />
      </g>
      <g
         id="g4703"
         transform="translate(298.6378,621.6076)">
        <path
           d="M 0,0 H 154.815"
           style="fill:none;stroke:#0016d1;stroke-width:2;stroke-linecap:butt;stroke-linejoin:miter;stroke-miterlimit:10;stroke-dasharray:none;stroke-opacity:1"
           id="path4705" />
      </g>
      <g
         id="g4707"
         transform="translate(452.4528,563.483)">
        <path
           d="M 0,0 V 57.125"
           style="fill:none;stroke:#0016d1;stroke-width:2;stroke-linecap:butt;stroke-linejoin:miter;stroke-miterlimit:10;stroke-dasharray:none;stroke-opacity:1"
           id="path4709" />
      </g>
      <g
         id="g4711"
         transform="translate(298.6378,562.483)">
        <path
           d="M 0,0 H 154.815"
           style="fill:none;stroke:#0016d1;stroke-width:2;stroke-linecap:butt;stroke-linejoin:miter;stroke-miterlimit:10;stroke-dasharray:none;stroke-opacity:1"
           id="path4713" />
      </g>
      <g
         id="g4715"
         transform="translate(452.4528,504.3583)">
        <path
           d="M 0,0 V 57.125"
           style="fill:none;stroke:#0016d1;stroke-width:2;stroke-linecap:butt;stroke-linejoin:miter;stroke-miterlimit:10;stroke-dasharray:none;stroke-opacity:1"
           id="path4717" />
      </g>
      <g
         id="g4719"
         transform="translate(298.6378,503.3583)">
        <path
           d="M 0,0 H 154.815"
           style="fill:none;stroke:#0016d1;stroke-width:2;stroke-linecap:butt;stroke-linejoin:miter;stroke-miterlimit:10;stroke-dasharray:none;stroke-opacity:1"
           id="path4721" />
      </g>
      <g
         id="g4723"
         transform="translate(452.4528,445.2336)">
        <path
           d="M 0,0 V 57.125"
           style="fill:none;stroke:#0016d1;stroke-width:2;stroke-linecap:butt;stroke-linejoin:miter;stroke-miterlimit:10;stroke-dasharray:none;stroke-opacity:1"
           id="path4725" />
      </g>
      <g
         id="g4727"
         transform="translate(298.6378,444.2336)">
        <path
           d="M 0,0 H 154.815"
           style="fill:none;stroke:#0016d1;stroke-width:2;stroke-linecap:butt;stroke-linejoin:miter;stroke-miterlimit:10;stroke-dasharray:none;stroke-opacity:1"
           id="path4729" />
      </g>
      <g
         id="g4731"
         transform="translate(452.4528,386.1089)">
        <path
           d="M 0,0 V 57.125"
           style="fill:none;stroke:#0016d1;stroke-width:2;stroke-linecap:butt;stroke-linejoin:miter;stroke-miterlimit:10;stroke-dasharray:none;stroke-opacity:1"
           id="path4733" />
      </g>
      <g
         id="g4735"
         transform="translate(298.6378,385.1089)">
        <path
           d="M 0,0 H 154.815"
           style="fill:none;stroke:#0016d1;stroke-width:2;stroke-linecap:butt;stroke-linejoin:miter;stroke-miterlimit:10;stroke-dasharray:none;stroke-opacity:1"
           id="path4737" />
      </g>
      <g
         id="g4739"
         transform="translate(452.4528,326.9843)">
        <path
           d="M 0,0 V 57.125"
           style="fill:none;stroke:#0016d1;stroke-width:2;stroke-linecap:butt;stroke-linejoin:miter;stroke-miterlimit:10;stroke-dasharray:none;stroke-opacity:1"
           id="path4741" />
      </g>
      <g
         id="g4743"
         transform="translate(298.6378,325.9843)">
        <path
           d="M 0,0 H 154.815"
           style="fill:none;stroke:#0016d1;stroke-width:2;stroke-linecap:butt;stroke-linejoin:miter;stroke-miterlimit:10;stroke-dasharray:none;stroke-opacity:1"
           id="path4745" />
      </g>
      <g
         id="g4747"
         transform="translate(452.4528,267.8596)">
        <path
           d="M 0,0 V 57.125"
           style="fill:none;stroke:#0016d1;stroke-width:2;stroke-linecap:butt;stroke-linejoin:miter;stroke-miterlimit:10;stroke-dasharray:none;stroke-opacity:1"
           id="path4749" />
      </g>
      <g
         id="g4751"
         transform="translate(297.6378,266.8596)">
        <path
           d="M 0,0 H 155.815"
           style="fill:none;stroke:#0016d1;stroke-width:2;stroke-linecap:butt;stroke-linejoin:miter;stroke-miterlimit:10;stroke-dasharray:none;stroke-opacity:1"
           id="path4753" />
      </g>
      <g
         id="g4755"
         transform="translate(143.8228,503.3583)">
        <path
           d="M 0,0 H 152.815"
           style="fill:none;stroke:#ffffff;stroke-width:2;stroke-linecap:butt;stroke-linejoin:miter;stroke-miterlimit:10;stroke-dasharray:none;stroke-opacity:1"
           id="path4757" />
      </g>
      <g
         id="g4759"
         transform="translate(143.8228,444.2336)">
        <path
           d="M 0,0 H 152.815"
           style="fill:none;stroke:#ffffff;stroke-width:2;stroke-linecap:butt;stroke-linejoin:miter;stroke-miterlimit:10;stroke-dasharray:none;stroke-opacity:1"
           id="path4761" />
      </g>
      <g
         id="g4763"
         transform="translate(143.8228,385.1089)">
        <path
           d="M 0,0 H 152.815"
           style="fill:none;stroke:#ffffff;stroke-width:2;stroke-linecap:butt;stroke-linejoin:miter;stroke-miterlimit:10;stroke-dasharray:none;stroke-opacity:1"
           id="path4765" />
      </g>
      <g
         id="g4767"
         transform="translate(143.8228,325.9843)">
        <path
           d="M 0,0 H 152.815"
           style="fill:none;stroke:#ffffff;stroke-width:2;stroke-linecap:butt;stroke-linejoin:miter;stroke-miterlimit:10;stroke-dasharray:none;stroke-opacity:1"
           id="path4769" />
      </g>
      <g
         id="g4771"
         transform="translate(141.8228,680.7323)">
        <path
           d="M 0,0 H 156.815"
           style="fill:none;stroke:#151fc9;stroke-width:2;stroke-linecap:butt;stroke-linejoin:miter;stroke-miterlimit:10;stroke-dasharray:none;stroke-opacity:1"
           id="path4773" />
      </g>
      <g
         id="g4775"
         transform="translate(142.8228,621.6076)">
        <path
           d="M 0,0 V 58.125"
           style="fill:none;stroke:#151fc9;stroke-width:2;stroke-linecap:butt;stroke-linejoin:miter;stroke-miterlimit:10;stroke-dasharray:none;stroke-opacity:1"
           id="path4777" />
      </g>
      <g
         id="g4779"
         transform="translate(297.6378,621.6076)">
        <path
           d="M 0,0 V 58.125"
           style="fill:none;stroke:#151fc9;stroke-width:2;stroke-linecap:butt;stroke-linejoin:miter;stroke-miterlimit:10;stroke-dasharray:none;stroke-opacity:1"
           id="path4781" />
      </g>
      <g
         id="g4783"
         transform="translate(142.8228,562.483)">
        <path
           d="M 0,0 V 59.125"
           style="fill:none;stroke:#151fc9;stroke-width:2;stroke-linecap:butt;stroke-linejoin:miter;stroke-miterlimit:10;stroke-dasharray:none;stroke-opacity:1"
           id="path4785" />
      </g>
      <g
         id="g4787"
         transform="translate(297.6378,562.483)">
        <path
           d="M 0,0 V 59.125"
           style="fill:none;stroke:#151fc9;stroke-width:2;stroke-linecap:butt;stroke-linejoin:miter;stroke-miterlimit:10;stroke-dasharray:none;stroke-opacity:1"
           id="path4789" />
      </g>
      <g
         id="g4791"
         transform="translate(142.8228,503.3583)">
        <path
           d="M 0,0 V 59.125"
           style="fill:none;stroke:#151fc9;stroke-width:2;stroke-linecap:butt;stroke-linejoin:miter;stroke-miterlimit:10;stroke-dasharray:none;stroke-opacity:1"
           id="path4793" />
      </g>
      <g
         id="g4795"
         transform="translate(297.6378,503.3583)">
        <path
           d="M 0,0 V 59.125"
           style="fill:none;stroke:#151fc9;stroke-width:2;stroke-linecap:butt;stroke-linejoin:miter;stroke-miterlimit:10;stroke-dasharray:none;stroke-opacity:1"
           id="path4797" />
      </g>
      <g
         id="g4799"
         transform="translate(142.8228,444.2336)">
        <path
           d="M 0,0 V 59.125"
           style="fill:none;stroke:#151fc9;stroke-width:2;stroke-linecap:butt;stroke-linejoin:miter;stroke-miterlimit:10;stroke-dasharray:none;stroke-opacity:1"
           id="path4801" />
      </g>
      <g
         id="g4803"
         transform="translate(297.6378,444.2336)">
        <path
           d="M 0,0 V 59.125"
           style="fill:none;stroke:#151fc9;stroke-width:2;stroke-linecap:butt;stroke-linejoin:miter;stroke-miterlimit:10;stroke-dasharray:none;stroke-opacity:1"
           id="path4805" />
      </g>
      <g
         id="g4807"
         transform="translate(142.8228,385.1089)">
        <path
           d="M 0,0 V 59.125"
           style="fill:none;stroke:#151fc9;stroke-width:2;stroke-linecap:butt;stroke-linejoin:miter;stroke-miterlimit:10;stroke-dasharray:none;stroke-opacity:1"
           id="path4809" />
      </g>
      <g
         id="g4811"
         transform="translate(297.6378,385.1089)">
        <path
           d="M 0,0 V 59.125"
           style="fill:none;stroke:#151fc9;stroke-width:2;stroke-linecap:butt;stroke-linejoin:miter;stroke-miterlimit:10;stroke-dasharray:none;stroke-opacity:1"
           id="path4813" />
      </g>
      <g
         id="g4815"
         transform="translate(142.8228,325.9843)">
        <path
           d="M 0,0 V 59.125"
           style="fill:none;stroke:#151fc9;stroke-width:2;stroke-linecap:butt;stroke-linejoin:miter;stroke-miterlimit:10;stroke-dasharray:none;stroke-opacity:1"
           id="path4817" />
      </g>
      <g
         id="g4819"
         transform="translate(297.6378,325.9843)">
        <path
           d="M 0,0 V 59.125"
           style="fill:none;stroke:#151fc9;stroke-width:2;stroke-linecap:butt;stroke-linejoin:miter;stroke-miterlimit:10;stroke-dasharray:none;stroke-opacity:1"
           id="path4821" />
      </g>
      <g
         id="g4823"
         transform="translate(142.8228,267.8596)">
        <path
           d="M 0,0 V 58.125"
           style="fill:none;stroke:#151fc9;stroke-width:2;stroke-linecap:butt;stroke-linejoin:miter;stroke-miterlimit:10;stroke-dasharray:none;stroke-opacity:1"
           id="path4825" />
      </g>
      <g
         id="g4827"
         transform="translate(297.6378,267.8596)">
        <path
           d="M 0,0 V 58.125"
           style="fill:none;stroke:#151fc9;stroke-width:2;stroke-linecap:butt;stroke-linejoin:miter;stroke-miterlimit:10;stroke-dasharray:none;stroke-opacity:1"
           id="path4829" />
      </g>
      <g
         id="g4831"
         transform="translate(143.8228,621.6076)">
        <path
           d="M 0,0 H 152.815"
           style="fill:none;stroke:#ffffff;stroke-width:2;stroke-linecap:butt;stroke-linejoin:miter;stroke-miterlimit:10;stroke-dasharray:none;stroke-opacity:1"
           id="path4833" />
      </g>
      <g
         id="g4835"
         transform="translate(143.8228,562.483)">
        <path
           d="M 0,0 H 152.815"
           style="fill:none;stroke:#ffffff;stroke-width:2;stroke-linecap:butt;stroke-linejoin:miter;stroke-miterlimit:10;stroke-dasharray:none;stroke-opacity:1"
           id="path4837" />
      </g>
      <g
         id="g4839"
         transform="translate(142.8228,207.7349)">
        <path
           d="M 0,0 V 58.125"
           style="fill:none;stroke:#2025c1;stroke-width:2;stroke-linecap:butt;stroke-linejoin:miter;stroke-miterlimit:10;stroke-dasharray:none;stroke-opacity:1"
           id="path4841" />
      </g>
      <g
         id="g4843"
         transform="translate(142.8228,148.6102)">
        <path
           d="M 0,0 V 59.125"
           style="fill:none;stroke:#2025c1;stroke-width:2;stroke-linecap:butt;stroke-linejoin:miter;stroke-miterlimit:10;stroke-dasharray:none;stroke-opacity:1"
           id="path4845" />
      </g>
      <g
         id="g4847"
         transform="translate(142.8228,90.4856)">
        <path
           d="M 0,0 V 58.125"
           style="fill:none;stroke:#2025c1;stroke-width:2;stroke-linecap:butt;stroke-linejoin:miter;stroke-miterlimit:10;stroke-dasharray:none;stroke-opacity:1"
           id="path4849" />
      </g>
      <g
         id="g4851"
         transform="translate(141.8228,89.4856)">
        <path
           d="M 0,0 H 155.815"
           style="fill:none;stroke:#2025c1;stroke-width:2;stroke-linecap:butt;stroke-linejoin:miter;stroke-miterlimit:10;stroke-dasharray:none;stroke-opacity:1"
           id="path4853" />
      </g>
      <g
         id="g4855"
         transform="translate(297.6378,207.7349)">
        <path
           d="M 0,0 V 58.125"
           style="fill:none;stroke:#2025c1;stroke-width:1;stroke-linecap:butt;stroke-linejoin:miter;stroke-miterlimit:10;stroke-dasharray:none;stroke-opacity:1"
           id="path4857" />
      </g>
      <g
         id="g4859"
         transform="translate(297.6378,148.6102)">
        <path
           d="M 0,0 V 59.125"
           style="fill:none;stroke:#2025c1;stroke-width:1;stroke-linecap:butt;stroke-linejoin:miter;stroke-miterlimit:10;stroke-dasharray:none;stroke-opacity:1"
           id="path4861" />
      </g>
      <g
         id="g4863"
         transform="translate(297.6378,90.4856)">
        <path
           d="M 0,0 V 58.125"
           style="fill:none;stroke:#2025c1;stroke-width:1;stroke-linecap:butt;stroke-linejoin:miter;stroke-miterlimit:10;stroke-dasharray:none;stroke-opacity:1"
           id="path4865" />
      </g>
      <g
         id="g4867"
         transform="translate(141.8228,266.8596)">
        <path
           d="M 0,0 H 155.815"
           style="fill:none;stroke:#ffffff;stroke-width:2;stroke-linecap:butt;stroke-linejoin:miter;stroke-miterlimit:10;stroke-dasharray:none;stroke-opacity:1"
           id="path4869" />
      </g>
      <g
         id="g4871"
         transform="translate(143.8228,207.7349)">
        <path
           d="M 0,0 H 153.315"
           style="fill:none;stroke:#ffffff;stroke-width:2;stroke-linecap:butt;stroke-linejoin:miter;stroke-miterlimit:10;stroke-dasharray:none;stroke-opacity:1"
           id="path4873" />
      </g>
      <g
         id="g4875"
         transform="translate(298.1378,207.7349)">
        <path
           d="M 0,0 H 153.315"
           style="fill:none;stroke:#38459e;stroke-width:2;stroke-linecap:butt;stroke-linejoin:miter;stroke-miterlimit:10;stroke-dasharray:none;stroke-opacity:1"
           id="path4877" />
      </g>
      <g
         id="g4879"
         transform="translate(143.8228,148.6102)">
        <path
           d="M 0,0 H 153.315"
           style="fill:none;stroke:#ffffff;stroke-width:2;stroke-linecap:butt;stroke-linejoin:miter;stroke-miterlimit:10;stroke-dasharray:none;stroke-opacity:1"
           id="path4881" />
      </g>
      <g
         id="g4883"
         transform="translate(298.1378,148.6102)">
        <path
           d="M 0,0 H 153.315"
           style="fill:none;stroke:#384895;stroke-width:2;stroke-linecap:butt;stroke-linejoin:miter;stroke-miterlimit:10;stroke-dasharray:none;stroke-opacity:1"
           id="path4885" />
      </g>
      <text
         transform="matrix(1,0,0,-1,190.1106,645.32)"
         style="font-variant:normal;font-weight:bold;font-stretch:normal;font-size:12px;font-family:'Helvetica 55 Roman';-inkscape-font-specification:HelveticaNeue-Bold;writing-mode:lr-tb;fill:#ffffff;fill-opacity:1;fill-rule:nonzero;stroke:none"
         id="text4889">
        <tspan
           y="0"
           x="0"
           id="tspan4887">ENSAM</tspan>
      </text>
      <text
         transform="matrix(1,0,0,-1,307.6411,652.295)"
         style="font-variant:normal;font-weight:bold;font-stretch:normal;font-size:10px;font-family:'Helvetica 55 Roman';-inkscape-font-specification:HelveticaNeue-Bold;writing-mode:lr-tb;fill:#384b8c;fill-opacity:1;fill-rule:nonzero;stroke:none"
         id="text4893">
        <tspan
           x="0 7.2199998 13.15 18.889999 21.67 28.16 33.900002 36.48 42.41 45.93 50 57.41 63.52 72.580002 75.160004 81.089996 83.669998 89.779999 95.709999 101.45 104.23 107.01 112.57 118.13 123.69 129.25 134.81"
           y="0"
           id="tspan4891">Rue Saint-Dominique, 51000</tspan>
      </text>
      <text
         transform="matrix(1,0,0,-1,316.7212,640.295)"
         style="font-variant:normal;font-weight:bold;font-stretch:normal;font-size:10px;font-family:'Helvetica 55 Roman';-inkscape-font-specification:HelveticaNeue-Bold;writing-mode:lr-tb;fill:#384b8c;fill-opacity:1;fill-rule:nonzero;stroke:none"
         id="text4897">
        <tspan
           x="0 7.4099998 13.34 19.08 21.66 27.77 33.700001 39.07 43.139999 48.880001 54.810001 58.880001 66.290001 72.220001 77.959999 87.019997 93.129997 98.870003 104.98 110.91"
           y="0"
           id="tspan4895">Châlons-en-Champagne</tspan>
      </text>
      <text
         transform="matrix(1,0,0,-1,162.0009,586.1953)"
         style="font-variant:normal;font-weight:bold;font-stretch:normal;font-size:12px;font-family:'Helvetica 55 Roman';-inkscape-font-specification:HelveticaNeue-Bold;writing-mode:lr-tb;fill:#ffffff;fill-opacity:1;fill-rule:nonzero;stroke:none"
         id="text4901">
        <tspan
           x="0 8.8920002 18.228001 29.112 37.116001 44.231998 52.007999 60.012001 67.788002 71.124001 78.239998 86.903999 90.444 98.232002 107.568"
           y="0"
           id="tspan4899">COMPLEXE FRISON</tspan>
      </text>
      <text
         transform="matrix(1,0,0,-1,311.8911,593.1703)"
         style="font-variant:normal;font-weight:bold;font-stretch:normal;font-size:10px;font-family:'Helvetica 55 Roman';-inkscape-font-specification:HelveticaNeue-Bold;writing-mode:lr-tb;fill:#384b8c;fill-opacity:1;fill-rule:nonzero;stroke:none"
         id="text4905">
        <tspan
           x="0 7.2199998 13.15 18.889999 21.67 27.6 33.34 39.450001 45.560001 51.669998 54.25 60.360001 63.139999 69.07 72.959999 75.540001 80.910004 87.019997 92.949997 95.730003 98.510002 104.07 109.63 115.19 120.75 126.31"
           y="0"
           id="tspan4903">Rue Léopold Frison, 51000</tspan>
      </text>
      <text
         transform="matrix(1,0,0,-1,316.7212,581.1703)"
         style="font-variant:normal;font-weight:bold;font-stretch:normal;font-size:10px;font-family:'Helvetica 55 Roman';-inkscape-font-specification:HelveticaNeue-Bold;writing-mode:lr-tb;fill:#384b8c;fill-opacity:1;fill-rule:nonzero;stroke:none"
         id="text4909">
        <tspan
           x="0 7.4099998 13.34 19.08 21.66 27.77 33.700001 39.07 43.139999 48.880001 54.810001 58.880001 66.290001 72.220001 77.959999 87.019997 93.129997 98.870003 104.98 110.91"
           y="0"
           id="tspan4907">Châlons-en-Champagne</tspan>
      </text>
      <text
         transform="matrix(1,0,0,-1,156.4928,534.2707)"
         style="font-variant:normal;font-weight:bold;font-stretch:normal;font-size:12px;font-family:'Helvetica 55 Roman';-inkscape-font-specification:HelveticaNeue-Bold;writing-mode:lr-tb;fill:#ffffff;fill-opacity:1;fill-rule:nonzero;stroke:none"
         id="text4913">
        <tspan
           x="0 8.8920002 18.228001 29.112 37.116001 44.231998 52.007999 60.012001 67.788002 71.124001 78.239998 86.459999 95.351997 102.3588 110.5788 119.4708"
           y="0"
           id="tspan4911">COMPLEXE LAUVAUX</tspan>
      </text>
      <text
         transform="matrix(1,0,0,-1,167.1127,519.8707)"
         style="font-variant:normal;font-weight:bold;font-stretch:normal;font-size:12px;font-family:'Helvetica 55 Roman';-inkscape-font-specification:HelveticaNeue-Bold;writing-mode:lr-tb;fill:#ffffff;fill-opacity:1;fill-rule:nonzero;stroke:none"
         id="text4917">
        <tspan
           x="0 9.1079998 17.112 27.996 36.888 45.108002 52.896 60.672001 64.008003 72.900002 81.120003 89.568001 98.903999"
           y="0"
           id="tspan4915">GYMNASE CABOT</tspan>
      </text>
      <text
         transform="matrix(1,0,0,-1,313.2664,540.0457)"
         style="font-variant:normal;font-weight:bold;font-stretch:normal;font-size:10px;font-family:'Helvetica 55 Roman';-inkscape-font-specification:HelveticaNeue-Bold;writing-mode:lr-tb;fill:#384b8c;fill-opacity:1;fill-rule:nonzero;stroke:none"
         id="text4921">
        <tspan
           x="0 6.4899998 10.01 15.75 21.860001 27.6 30.379999 36.490002 42.23 47.599998 50.380001 53.709999 57.599998 63.34 67.049004 72.789001 78.158997 80.939003 86.869003 92.609001 98.539001 103.739 109.479 115.409 120.779 123.559"
           y="0"
           id="tspan4919">Stade des frères Lauvaux,</tspan>
      </text>
      <text
         transform="matrix(1,0,0,-1,313.2811,528.0457)"
         style="font-variant:normal;font-weight:bold;font-stretch:normal;font-size:10px;font-family:'Helvetica 55 Roman';-inkscape-font-specification:HelveticaNeue-Bold;writing-mode:lr-tb;fill:#384b8c;fill-opacity:1;fill-rule:nonzero;stroke:none"
         id="text4925">
        <tspan
           x="0 7.2199998 13.15 18.889999 21.67 28.889999 34.630001 40.560001 46.299999 49.080002 55.009998 60.75 69.809998 75.919998 78.5 84.43 90.169998 92.949997 95.730003 101.29 106.85 112.41 117.97 123.53"
           y="0"
           id="tspan4923">Rue René Lemoine, 51000</tspan>
      </text>
      <text
         transform="matrix(1,0,0,-1,316.7212,516.0457)"
         style="font-variant:normal;font-weight:bold;font-stretch:normal;font-size:10px;font-family:'Helvetica 55 Roman';-inkscape-font-specification:HelveticaNeue-Bold;writing-mode:lr-tb;fill:#384b8c;fill-opacity:1;fill-rule:nonzero;stroke:none"
         id="text4929">
        <tspan
           x="0 7.4099998 13.34 19.08 21.66 27.77 33.700001 39.07 43.139999 48.880001 54.810001 58.880001 66.290001 72.220001 77.959999 87.019997 93.129997 98.870003 104.98 110.91"
           y="0"
           id="tspan4927">Châlons-en-Champagne</tspan>
      </text>
      <text
         transform="matrix(1,0,0,-1,160.1048,475.146)"
         style="font-variant:normal;font-weight:bold;font-stretch:normal;font-size:12px;font-family:'Helvetica 55 Roman';-inkscape-font-specification:HelveticaNeue-Bold;writing-mode:lr-tb;fill:#ffffff;fill-opacity:1;fill-rule:nonzero;stroke:none"
         id="text4933">
        <tspan
           x="0 7.7880001 14.016 22.236 31.128 38.903999 42.240002 50.903999 58.68 67.571999 75.348 78.683998 86.472 94.692001 103.584 112.476 120.252"
           y="0"
           id="tspan4931">STADE RENÉ SACHÉ</tspan>
      </text>
      <text
         transform="matrix(1,0,0,-1,166.1289,460.746)"
         style="font-variant:normal;font-weight:bold;font-stretch:normal;font-size:12px;font-family:'Helvetica 55 Roman';-inkscape-font-specification:HelveticaNeue-Bold;writing-mode:lr-tb;fill:#ffffff;fill-opacity:1;fill-rule:nonzero;stroke:none"
         id="text4937">
        <tspan
           x="0 9.1079998 17.112 27.996 36.888 45.108002 52.896 60.672001 64.008003 72.671997 76.211998 83.987999 91.764 99.540001"
           y="0"
           id="tspan4935">GYMNASE KIEZER</tspan>
      </text>
      <text
         transform="matrix(1,0,0,-1,312.7311,480.921)"
         style="font-variant:normal;font-weight:bold;font-stretch:normal;font-size:10px;font-family:'Helvetica 55 Roman';-inkscape-font-specification:HelveticaNeue-Bold;writing-mode:lr-tb;fill:#384b8c;fill-opacity:1;fill-rule:nonzero;stroke:none"
         id="text4941">
        <tspan
           x="0 7.4099998 13.52 22.58 28.690001 31.27 37.009998 42.380001 48.119999 50.900002 58.119999 63.860001 69.790001 75.529999 78.309998 84.800003 90.540001 96.279999 102.21 107.95 110.73 113.51 119.07 124.63"
           y="0"
           id="tspan4939">Complexe René Saché, 15</tspan>
      </text>
      <text
         transform="matrix(1,0,0,-1,311.141,468.921)"
         style="font-variant:normal;font-weight:bold;font-stretch:normal;font-size:10px;font-family:'Helvetica 55 Roman';-inkscape-font-specification:HelveticaNeue-Bold;writing-mode:lr-tb;fill:#384b8c;fill-opacity:1;fill-rule:nonzero;stroke:none"
         id="text4945">
        <tspan
           x="0 3.8900001 9.8199997 15.56 18.34 23.9 29.639999 35.380001 41.490002 47.419998 53.16 58.529999 61.310001 68.720001 74.650002 80.389999 82.970001 89.080002 94.449997 97.230003 100.01 105.57 111.13 116.69 122.25 127.81"
           y="0"
           id="tspan4943">rue Jacques Duclos, 51000</tspan>
      </text>
      <text
         transform="matrix(1,0,0,-1,316.7212,456.921)"
         style="font-variant:normal;font-weight:bold;font-stretch:normal;font-size:10px;font-family:'Helvetica 55 Roman';-inkscape-font-specification:HelveticaNeue-Bold;writing-mode:lr-tb;fill:#384b8c;fill-opacity:1;fill-rule:nonzero;stroke:none"
         id="text4949">
        <tspan
           x="0 7.4099998 13.34 19.08 21.66 27.77 33.700001 39.07 43.139999 48.880001 54.810001 58.880001 66.290001 72.220001 77.959999 87.019997 93.129997 98.870003 104.98 110.91"
           y="0"
           id="tspan4947">Châlons-en-Champagne</tspan>
      </text>
      <text
         transform="matrix(1,0,0,-1,148.9989,408.8213)"
         style="font-variant:normal;font-weight:bold;font-stretch:normal;font-size:12px;font-family:'Helvetica 55 Roman';-inkscape-font-specification:HelveticaNeue-Bold;writing-mode:lr-tb;fill:#ffffff;fill-opacity:1;fill-rule:nonzero;stroke:none"
         id="text4953">
        <tspan
           x="0 9.1079998 17.112 27.996 36.888 45.108002 52.896 60.672001 64.008003 72.900002 81.792 85.127998 92.688004 100.464 109.128 117.576 125.352 133.57201"
           y="0"
           id="tspan4951">GYMNASE DU VERBEAU</tspan>
      </text>
      <text
         transform="matrix(1,0,0,-1,311.6112,421.7963)"
         style="font-variant:normal;font-weight:bold;font-stretch:normal;font-size:10px;font-family:'Helvetica 55 Roman';-inkscape-font-specification:HelveticaNeue-Bold;writing-mode:lr-tb;fill:#384b8c;fill-opacity:1;fill-rule:nonzero;stroke:none"
         id="text4957">
        <tspan
           x="0 7.5900002 12.78 21.84 27.77 33.509998 38.880001 44.619999 47.400002 54.810001 60.740002 63.52 69.268997 75.009003 78.899002 85.009003 90.749001 96.488998 102.419 105.199 107.979 115.199 121.129 126.869"
           y="0"
           id="tspan4955">Gymnase Du Verbeau, Rue</tspan>
      </text>
      <text
         transform="matrix(1,0,0,-1,319.8059,409.7963)"
         style="font-variant:normal;font-weight:bold;font-stretch:normal;font-size:10px;font-family:'Helvetica 55 Roman';-inkscape-font-specification:HelveticaNeue-Bold;writing-mode:lr-tb;fill:#384b8c;fill-opacity:1;fill-rule:nonzero;stroke:none"
         id="text4961">
        <tspan
           x="0 7.5900002 13.33 19.440001 23.049999 29.16 34.900002 40.27 43.049999 50.09 55.830002 59.720001 65.830002 68.410004 74.150002 77.119003 79.899002 82.679001 88.238998 93.799004 99.359001 104.919 110.479"
           y="0"
           id="tspan4959">Georges Barbier, 51000</tspan>
      </text>
      <text
         transform="matrix(1,0,0,-1,316.7212,397.7963)"
         style="font-variant:normal;font-weight:bold;font-stretch:normal;font-size:10px;font-family:'Helvetica 55 Roman';-inkscape-font-specification:HelveticaNeue-Bold;writing-mode:lr-tb;fill:#384b8c;fill-opacity:1;fill-rule:nonzero;stroke:none"
         id="text4965">
        <tspan
           x="0 7.4099998 13.34 19.08 21.66 27.77 33.700001 39.07 43.139999 48.880001 54.810001 58.880001 66.290001 72.220001 77.959999 87.019997 93.129997 98.870003 104.98 110.91"
           y="0"
           id="tspan4963">Châlons-en-Champagne</tspan>
      </text>
      <text
         transform="matrix(1,0,0,-1,175.8968,349.6967)"
         style="font-variant:normal;font-weight:bold;font-stretch:normal;font-size:12px;font-family:'Helvetica 55 Roman';-inkscape-font-specification:HelveticaNeue-Bold;writing-mode:lr-tb;fill:#ffffff;fill-opacity:1;fill-rule:nonzero;stroke:none"
         id="text4969">
        <tspan
           x="0 6.6719999 14.892 23.556 32.448002 35.784 44.004002 52.896 62.004002 69.120003 77.339996 80.879997"
           y="0"
           id="tspan4967">JARD ANGLAIS</tspan>
      </text>
      <text
         transform="matrix(1,0,0,-1,312.166,356.6717)"
         style="font-variant:normal;font-weight:bold;font-stretch:normal;font-size:10px;font-family:'Helvetica 55 Roman';-inkscape-font-specification:HelveticaNeue-Bold;writing-mode:lr-tb;fill:#384b8c;fill-opacity:1;fill-rule:nonzero;stroke:none"
         id="text4973">
        <tspan
           x="0 7.4099998 13.34 19.08 28.139999 30.719999 36.650002 39.43 45.540001 51.470001 54.25 61.290001 67.029999 70.919998 74.809998 80.550003 86.660004 92.400002 95.18 97.959999 103.52 109.08 114.64 120.2 125.76"
           y="0"
           id="tspan4971">Chemin du Barrage, 51000</tspan>
      </text>
      <text
         transform="matrix(1,0,0,-1,316.7212,344.6717)"
         style="font-variant:normal;font-weight:bold;font-stretch:normal;font-size:10px;font-family:'Helvetica 55 Roman';-inkscape-font-specification:HelveticaNeue-Bold;writing-mode:lr-tb;fill:#384b8c;fill-opacity:1;fill-rule:nonzero;stroke:none"
         id="text4977">
        <tspan
           x="0 7.4099998 13.34 19.08 21.66 27.77 33.700001 39.07 43.139999 48.880001 54.810001 58.880001 66.290001 72.220001 77.959999 87.019997 93.129997 98.870003 104.98 110.91"
           y="0"
           id="tspan4975">Châlons-en-Champagne</tspan>
      </text>
      <text
         transform="matrix(1,0,0,-1,158.5688,297.772)"
         style="font-variant:normal;font-weight:bold;font-stretch:normal;font-size:12px;font-family:'Helvetica 55 Roman';-inkscape-font-specification:HelveticaNeue-Bold;writing-mode:lr-tb;fill:#ffffff;fill-opacity:1;fill-rule:nonzero;stroke:none"
         id="text4981">
        <tspan
           x="0 8.0039997 11.544 19.332001 28.224001 31.764 40.655998 48.431999 51.768002 61.104 66.888 74.891998 85.776001 93.779999 97.32 106.656 115.548 123.324"
           y="0"
           id="tspan4979">PISCINE OLYMPIQUE</tspan>
      </text>
      <text
         transform="matrix(1,0,0,-1,152.4488,283.372)"
         style="font-variant:normal;font-weight:bold;font-stretch:normal;font-size:12px;font-family:'Helvetica 55 Roman';-inkscape-font-specification:HelveticaNeue-Bold;writing-mode:lr-tb;fill:#ffffff;fill-opacity:1;fill-rule:nonzero;stroke:none"
         id="text4985">
        <tspan
           x="0 9.1079998 17.112 27.996 36.888 45.108002 52.896 60.672001 64.008003 72.900002 82.236 91.127998 99.575996 107.352 115.7988 123.1308 126.6708"
           y="0"
           id="tspan4983">GYMNASE COUBERTIN</tspan>
      </text>
      <text
         transform="matrix(1,0,0,-1,328.1809,303.547)"
         style="font-variant:normal;font-weight:bold;font-stretch:normal;font-size:10px;font-family:'Helvetica 55 Roman';-inkscape-font-specification:HelveticaNeue-Bold;writing-mode:lr-tb;fill:#384b8c;fill-opacity:1;fill-rule:nonzero;stroke:none"
         id="text4989">
        <tspan
           x="0 5.5599999 11.12 13.9 20.940001 27.049999 32.98 35.560001 41.299999 46.5 52.240002 55.949001 62.058998 64.838997 70.399002 76.329002 81.698997 85.219002 87.799004 93.728996"
           y="0"
           id="tspan4987">45 Boulevard Justin</tspan>
      </text>
      <text
         transform="matrix(1,0,0,-1,301.6378,291.547)"
         style="font-variant:normal;font-weight:bold;font-stretch:normal;font-size:10px;font-family:'Helvetica 55 Roman';-inkscape-font-specification:HelveticaNeue-Bold;writing-mode:lr-tb;fill:#384b8c;fill-opacity:1;fill-rule:nonzero;stroke:none"
         id="text4993">
        <tspan
           x="0 7.5900002 11.48 17.219999 23.15 29.26 32.779999 38.709999 41.290001 43.869999 46.450001 52.189999 54.970001 57.549999 63.110001 68.669998 74.230003 79.790001 85.349998 87.93 95.339996 101.27 107.01 109.59 115.7 121.63 127 131.07001 136.81"
           y="0"
           id="tspan4991">Grandthille, 51000 Châlons-en</tspan>
      </text>
      <text
         transform="matrix(1,0,0,-1,444.3828,291.547)"
         style="font-variant:normal;font-weight:bold;font-stretch:normal;font-size:10px;font-family:'Helvetica 55 Roman';-inkscape-font-specification:HelveticaNeue-Bold;writing-mode:lr-tb;fill:#384b8c;fill-opacity:1;fill-rule:nonzero;stroke:none"
         id="text4997">
        <tspan
           x="0"
           y="0"
           id="tspan4995">-</tspan>
      </text>
      <text
         transform="matrix(1,0,0,-1,346.1607,279.547)"
         style="font-variant:normal;font-weight:bold;font-stretch:normal;font-size:10px;font-family:'Helvetica 55 Roman';-inkscape-font-specification:HelveticaNeue-Bold;writing-mode:lr-tb;fill:#384b8c;fill-opacity:1;fill-rule:nonzero;stroke:none"
         id="text5001">
        <tspan
           x="0 7.4099998 13.34 19.08 28.139999 34.25 39.990002 46.099998 52.029999"
           y="0"
           id="tspan4999">Champagne</tspan>
      </text>
      <text
         transform="matrix(1,0,0,-1,164.2209,231.4473)"
         style="font-variant:normal;font-weight:bold;font-stretch:normal;font-size:12px;font-family:'Helvetica 55 Roman';-inkscape-font-specification:HelveticaNeue-Bold;writing-mode:lr-tb;fill:#ffffff;fill-opacity:1;fill-rule:nonzero;stroke:none"
         id="text5005">
        <tspan
           x="0 9.1079998 17.112 27.996 36.888 45.108002 52.896 60.672001 64.008003 72.456001 81.120003 89.339996 98.232002 104.0148"
           y="0"
           id="tspan5003">GYMNASE BRANLY</tspan>
      </text>
      <text
         transform="matrix(1,0,0,-1,311.2309,238.4223)"
         style="font-variant:normal;font-weight:bold;font-stretch:normal;font-size:10px;font-family:'Helvetica 55 Roman';-inkscape-font-specification:HelveticaNeue-Bold;writing-mode:lr-tb;fill:#384b8c;fill-opacity:1;fill-rule:nonzero;stroke:none"
         id="text5009">
        <tspan
           x="0 7.2199998 13.15 18.889999 21.67 28.15 34.259998 40.369999 46.299999 52.040001 55.749001 61.859001 64.639 71.679001 75.569 81.308998 87.238998 89.819 94.268997 97.049004 99.829002 105.389 110.949 116.509 122.069 127.629"
           y="0"
           id="tspan5007">Rue Edouard Branly, 51000</tspan>
      </text>
      <text
         transform="matrix(1,0,0,-1,319.6861,226.4223)"
         style="font-variant:normal;font-weight:bold;font-stretch:normal;font-size:10px;font-family:'Helvetica 55 Roman';-inkscape-font-specification:HelveticaNeue-Bold;writing-mode:lr-tb;fill:#384b8c;fill-opacity:1;fill-rule:nonzero;stroke:none"
         id="text5013">
        <tspan
           x="0 7.4099998 13.34 19.08 21.66 27.77 33.700001 39.07 43.139999 48.880001 54.810001 58.880001 66.290001 72.220001 77.959999 87.019997 93.129997 98.870003 104.98"
           y="0"
           id="tspan5011">Châlons-en-Champage</tspan>
      </text>
      <text
         transform="matrix(1,0,0,-1,176.7728,172.3226)"
         style="font-variant:normal;font-weight:bold;font-stretch:normal;font-size:12px;font-family:'Helvetica 55 Roman';-inkscape-font-specification:HelveticaNeue-Bold;writing-mode:lr-tb;fill:#ffffff;fill-opacity:1;fill-rule:nonzero;stroke:none"
         id="text5017">
        <tspan
           x="0 7.1160002 10.656 17.988001 26.879999 34.655998 42.444 50.231998 53.568001 62.459999 69.575996 78.468002"
           y="0"
           id="tspan5015">FITNESS CLUB</tspan>
      </text>
      <text
         transform="matrix(1,0,0,-1,310.6412,185.2976)"
         style="font-variant:normal;font-weight:bold;font-stretch:normal;font-size:10px;font-family:'Helvetica 55 Roman';-inkscape-font-specification:HelveticaNeue-Bold;writing-mode:lr-tb;fill:#384b8c;fill-opacity:1;fill-rule:nonzero;stroke:none"
         id="text5021">
        <tspan
           x="0 5.5599999 11.12 17.23 23.709999 30.93 33.709999 37.040001 42.779999 48.709999 54.82 60.93 66.860001 70.469002 76.579002 79.359001 85.848999 89.369003 92.149002 98.999001 104.929 108.449 114.559 117.139 123.069"
           y="0"
           id="tspan5019">67TER faubourg St Antoine</tspan>
      </text>
      <text
         transform="matrix(1,0,0,-1,314.2109,173.2976)"
         style="font-variant:normal;font-weight:bold;font-stretch:normal;font-size:10px;font-family:'Helvetica 55 Roman';-inkscape-font-specification:HelveticaNeue-Bold;writing-mode:lr-tb;fill:#384b8c;fill-opacity:1;fill-rule:nonzero;stroke:none"
         id="text5025">
        <tspan
           x="0 5.5599999 11.12 16.68 22.24 27.799999 30.58 37.990002 43.919998 49.66 52.240002 58.349998 64.279999 69.650002 73.720001 79.459999 85.389999 89.459999 96.870003 102.8 108.54"
           y="0"
           id="tspan5023">51000 Châlons-en-Cham</tspan>
      </text>
      <text
         transform="matrix(1,0,0,-1,431.8097,173.2976)"
         style="font-variant:normal;font-weight:bold;font-stretch:normal;font-size:10px;font-family:'Helvetica 55 Roman';-inkscape-font-specification:HelveticaNeue-Bold;writing-mode:lr-tb;fill:#384b8c;fill-opacity:1;fill-rule:nonzero;stroke:none"
         id="text5029">
        <tspan
           x="0"
           y="0"
           id="tspan5027">-</tspan>
      </text>
      <text
         transform="matrix(1,0,0,-1,360.2305,161.2976)"
         style="font-variant:normal;font-weight:bold;font-stretch:normal;font-size:10px;font-family:'Helvetica 55 Roman';-inkscape-font-specification:HelveticaNeue-Bold;writing-mode:lr-tb;fill:#384b8c;fill-opacity:1;fill-rule:nonzero;stroke:none"
         id="text5033">
        <tspan
           x="0 6.1100001 11.85 17.959999 23.889999"
           y="0"
           id="tspan5031">pagne</tspan>
      </text>
      <text
         transform="matrix(1,0,0,-1,179.0169,120.3979)"
         style="font-variant:normal;font-weight:bold;font-stretch:normal;font-size:12px;font-family:'Helvetica 55 Roman';-inkscape-font-specification:HelveticaNeue-Bold;writing-mode:lr-tb;fill:#ffffff;fill-opacity:1;fill-rule:nonzero;stroke:none"
         id="text5037">
        <tspan
           x="0 8.8920002 16.224001 19.32 22.416 29.304001 36.636002 43.523998 46.860001 54.863998 61.751999 66.419998 70.870796 78.202797 82.426804"
           y="0"
           id="tspan5035">Collège Perrot</tspan>
      </text>
      <text
         transform="matrix(1,0,0,-1,183.3429,105.9979)"
         style="font-variant:normal;font-weight:bold;font-stretch:normal;font-size:12px;font-family:'Helvetica 55 Roman';-inkscape-font-specification:HelveticaNeue-Bold;writing-mode:lr-tb;fill:#ffffff;fill-opacity:1;fill-rule:nonzero;stroke:none"
         id="text5041">
        <tspan
           x="0 8.8920002 12.228 19.115999 26.448 29.544001 36.431999 43.548 50.436001 57.768002 64.884003 69.552002"
           y="0"
           id="tspan5039">D’ablancourt</tspan>
      </text>
      <text
         transform="matrix(1,0,0,-1,302.3414,126.1729)"
         style="font-variant:normal;font-weight:bold;font-stretch:normal;font-size:10px;font-family:'Helvetica 55 Roman';-inkscape-font-specification:HelveticaNeue-Bold;writing-mode:lr-tb;fill:#384b8c;fill-opacity:1;fill-rule:nonzero;stroke:none"
         id="text5045">
        <tspan
           x="0 5.5599999 8.3400002 15.56 21.49 27.23 30.01 36.119999 42.049999 44.830002 51.5 55.209 61.319 64.649002 70.389 75.759003 81.128998 86.869003 92.799004 96.689003 99.469002 105.399 111.139 117.069 123.179 128.91901 134.119 136.69901 142.629 145.409"
           y="0"
           id="tspan5043">1 Rue du Professeur Langevin,</tspan>
      </text>
      <text
         transform="matrix(1,0,0,-1,314.2109,114.1729)"
         style="font-variant:normal;font-weight:bold;font-stretch:normal;font-size:10px;font-family:'Helvetica 55 Roman';-inkscape-font-specification:HelveticaNeue-Bold;writing-mode:lr-tb;fill:#384b8c;fill-opacity:1;fill-rule:nonzero;stroke:none"
         id="text5049">
        <tspan
           x="0 5.5599999 11.12 16.68 22.24 27.799999 30.58 37.990002 43.919998 49.66 52.240002 58.349998 64.279999 69.650002 73.720001 79.459999 85.389999 89.459999 96.870003 102.8 108.54"
           y="0"
           id="tspan5047">51000 Châlons-en-Cham</tspan>
      </text>
      <text
         transform="matrix(1,0,0,-1,431.8097,114.1729)"
         style="font-variant:normal;font-weight:bold;font-stretch:normal;font-size:10px;font-family:'Helvetica 55 Roman';-inkscape-font-specification:HelveticaNeue-Bold;writing-mode:lr-tb;fill:#384b8c;fill-opacity:1;fill-rule:nonzero;stroke:none"
         id="text5053">
        <tspan
           x="0"
           y="0"
           id="tspan5051">-</tspan>
      </text>
      <text
         transform="matrix(1,0,0,-1,360.2305,102.1729)"
         style="font-variant:normal;font-weight:bold;font-stretch:normal;font-size:10px;font-family:'Helvetica 55 Roman';-inkscape-font-specification:HelveticaNeue-Bold;writing-mode:lr-tb;fill:#384b8c;fill-opacity:1;fill-rule:nonzero;stroke:none"
         id="text5057">
        <tspan
           x="0 6.1100001 11.85 17.959999 23.889999"
           y="0"
           id="tspan5055">pagne</tspan>
      </text>
    </g>
  </g>
</svg>
