<?xml version="1.0" encoding="UTF-8" standalone="no"?>
<svg
   xmlns:dc="http://purl.org/dc/elements/1.1/"
   xmlns:cc="http://creativecommons.org/ns#"
   xmlns:rdf="http://www.w3.org/1999/02/22-rdf-syntax-ns#"
   xmlns:svg="http://www.w3.org/2000/svg"
   xmlns="http://www.w3.org/2000/svg"
   xmlns:sodipodi="http://sodipodi.sourceforge.net/DTD/sodipodi-0.dtd"
   xmlns:inkscape="http://www.inkscape.org/namespaces/inkscape"
   id="svg4813"
   version="1.1"
   viewBox="0 0 157.83348 172.45164"
   height="172.45164mm"
   width="157.83348mm"
   sodipodi:docname="securite.svg"
   inkscape:version="0.92.1 r15371">
  <sodipodi:namedview
     pagecolor="#ffffff"
     bordercolor="#666666"
     borderopacity="1"
     objecttolerance="10"
     gridtolerance="10"
     guidetolerance="10"
     inkscape:pageopacity="0"
     inkscape:pageshadow="2"
     inkscape:window-width="1920"
     inkscape:window-height="1001"
     id="namedview54"
     showgrid="false"
     inkscape:zoom="1.4483287"
     inkscape:cx="426.26396"
     inkscape:cy="325.89287"
     inkscape:window-x="-9"
     inkscape:window-y="-9"
     inkscape:window-maximized="1"
     inkscape:current-layer="g5366" />
  <defs
     id="defs4807" />
  <metadata
     id="metadata4810">
    <rdf:RDF>
      <cc:Work
         rdf:about="">
        <dc:format>image/svg+xml</dc:format>
        <dc:type
           rdf:resource="http://purl.org/dc/dcmitype/StillImage" />
        <dc:title />
      </cc:Work>
    </rdf:RDF>
  </metadata>
  <g
     transform="translate(49.485314,129.67005)"
     id="layer1">
    <g
       id="g5366"
       transform="matrix(0.35277777,0,0,-0.35277777,-75.568644,64.605129)">
      <text
         transform="scale(1,-1)"
         style="font-variant:normal;font-weight:bold;font-stretch:normal;font-size:12px;font-family:'Helvetica 55 Roman';-inkscape-font-specification:HelveticaNeue-Bold;writing-mode:lr-tb;fill:#231f20;fill-opacity:1;fill-rule:nonzero;stroke:none"
         id="text5370"
         x="-176.40948"
         y="-425.54431">
        <tspan
           x="135.55449"
           id="tspan5368">Aucune dégradation des locaux ou du matériel ne sera</tspan>
      </text>
      <text
         transform="matrix(1,0,0,-1,135.5905,413.5443)"
         style="font-variant:normal;font-weight:bold;font-stretch:normal;font-size:12px;font-family:'Helvetica 55 Roman';-inkscape-font-specification:HelveticaNeue-Bold;writing-mode:lr-tb;fill:#231f20;fill-opacity:1;fill-rule:nonzero;stroke:none"
         id="text5374">
        <tspan
           id="tspan5372">tolérée.</tspan>
      </text>
      <text
         transform="matrix(1,0,0,-1,135.5905,389.5443)"
         style="font-variant:normal;font-weight:bold;font-stretch:normal;font-size:12px;font-family:'Helvetica 55 Roman';-inkscape-font-specification:HelveticaNeue-Bold;writing-mode:lr-tb;fill:#231f20;fill-opacity:1;fill-rule:nonzero;stroke:none"
         id="text5378">
        <tspan
           x="304.18799 314.41199"
           id="tspan5376" />
      </text>
      <text
         transform="matrix(1,0,0,-1,135.5905,377.5443)"
         style="font-variant:normal;font-weight:bold;font-stretch:normal;font-size:12px;font-family:'Helvetica 55 Roman';-inkscape-font-specification:HelveticaNeue-Bold;writing-mode:lr-tb;fill:#231f20;fill-opacity:1;fill-rule:nonzero;stroke:none"
         id="text5382">
        <tspan
           id="tspan5380">tout le temps.</tspan>
      </text>
      <text
         transform="matrix(1,0,0,-1,135.5905,353.5443)"
         style="font-variant:normal;font-weight:bold;font-stretch:normal;font-size:12px;font-family:'Helvetica 55 Roman';-inkscape-font-specification:HelveticaNeue-Bold;writing-mode:lr-tb;fill:#231f20;fill-opacity:1;fill-rule:nonzero;stroke:none"
         id="text5386">
        <tspan
           id="tspan5384">Il est interdit de ramener de l’alcool extérieur.</tspan>
      </text>
      <text
         transform="scale(1,-1)"
         style="font-variant:normal;font-weight:bold;font-stretch:normal;font-size:12px;font-family:'Helvetica 55 Roman';-inkscape-font-specification:HelveticaNeue-Bold;writing-mode:lr-tb;fill:#231f20;fill-opacity:1;fill-rule:nonzero;stroke:none"
         id="text5390"
         x="-170.40948"
         y="-329.54431">
        <tspan
           x="136.47852"
           id="tspan5388">Ne pas détenir d’alcool en dehors de la zone prévue à</tspan>
      </text>
      <text
         transform="matrix(1,0,0,-1,135.5905,317.5443)"
         style="font-variant:normal;font-weight:bold;font-stretch:normal;font-size:12px;font-family:'Helvetica 55 Roman';-inkscape-font-specification:HelveticaNeue-Bold;writing-mode:lr-tb;fill:#231f20;fill-opacity:1;fill-rule:nonzero;stroke:none"
         id="text5394">
        <tspan
           id="tspan5392">cet effet.</tspan>
      </text>
      <text
         transform="scale(1.0389785,-0.96248382)"
         style="font-variant:normal;font-weight:bold;font-stretch:normal;font-size:12.46774197px;font-family:'Helvetica 55 Roman';-inkscape-font-specification:HelveticaNeue-Bold;writing-mode:lr-tb;fill:#231f20;fill-opacity:1;fill-rule:nonzero;stroke:none;stroke-width:1.03897858"
         id="text5398"
         x="-179.66245"
         y="-304.98624">
        <tspan
           x="130.43149"
           id="tspan5396"
           style="stroke-width:1.03897858">Si tu viens en voiture, tu dois te garer sur le parking</tspan>
      </text>
      <text
         transform="scale(1,-1)"
         style="font-variant:normal;font-weight:bold;font-stretch:normal;font-size:12px;font-family:'Helvetica 55 Roman';-inkscape-font-specification:HelveticaNeue-Bold;writing-mode:lr-tb;fill:#231f20;fill-opacity:1;fill-rule:nonzero;stroke:none"
         id="text5402"
         x="-183.90948"
         y="-281.54431">
        <tspan
           x="136.29492"
           id="tspan5400">prévu à cet effet et remettre tes clefs aux organisateurs.</tspan>
      </text>
      <text
         transform="matrix(1,0,0,-1,135.5905,257.5443)"
         style="font-variant:normal;font-weight:bold;font-stretch:normal;font-size:12px;font-family:'Helvetica 55 Roman';-inkscape-font-specification:HelveticaNeue-Bold;writing-mode:lr-tb;fill:#231f20;fill-opacity:1;fill-rule:nonzero;stroke:none"
         id="text5406">
        <tspan
           id="tspan5404">La ville de Châlons nous accueille, respecte là et re</tspan>
      </text>
      <text
         transform="scale(1,-1)"
         style="font-variant:normal;font-weight:bold;font-stretch:normal;font-size:12px;font-family:'Helvetica 55 Roman';-inkscape-font-specification:HelveticaNeue-Bold;writing-mode:lr-tb;fill:#231f20;fill-opacity:1;fill-rule:nonzero;stroke:none"
         id="text5410"
         x="409.76208"
         y="-257.54431">
        <tspan
           x="409.76208"
           y="-257.54431"
           id="tspan5408">-</tspan>
      </text>
      <text
         transform="matrix(1,0,0,-1,135.5905,245.5443)"
         style="font-variant:normal;font-weight:bold;font-stretch:normal;font-size:12px;font-family:'Helvetica 55 Roman';-inkscape-font-specification:HelveticaNeue-Bold;writing-mode:lr-tb;fill:#231f20;fill-opacity:1;fill-rule:nonzero;stroke:none"
         id="text5414">
        <tspan
           id="tspan5412">specte la tranquillité des riverains.</tspan>
      </text>
      <text
         transform="scale(1,-1)"
         style="font-variant:normal;font-weight:bold;font-stretch:normal;font-size:12px;font-family:'Helvetica 55 Roman';-inkscape-font-specification:HelveticaNeue-Bold;writing-mode:lr-tb;fill:#231f20;fill-opacity:1;fill-rule:nonzero;stroke:none"
         id="text5418"
         x="-180.90948"
         y="-219.1443">
        <tspan
           x="136.27089"
           id="tspan5416">Respecter les consignes données par les organisateurs</tspan>
      </text>
      <text
         transform="matrix(1,0,0,-1,135.5905,204.7442)"
         style="font-variant:normal;font-weight:bold;font-stretch:normal;font-size:12px;font-family:'Helvetica 55 Roman';-inkscape-font-specification:HelveticaNeue-Bold;writing-mode:lr-tb;fill:#231f20;fill-opacity:1;fill-rule:nonzero;stroke:none"
         id="text5422">
        <tspan
           id="tspan5420">de la manifestation et les responsables des lieux</tspan>
      </text>
      <text
         transform="matrix(1,0,0,-1,74.4095,537.5433)"
         style="font-variant:normal;font-weight:normal;font-stretch:normal;font-size:18px;font-family:HelveticaNeue;-inkscape-font-specification:HelveticaNeue;writing-mode:lr-tb;fill:#231f20;fill-opacity:1;fill-rule:nonzero;stroke:none"
         id="text5426">
        <tspan
           x="0 11.664 21.996 32.004002 37.998001 43.001999 53.675999 63.683998 73.349998 78.353996 82.349998 92.015999 101.016 106.02 116.028 126.036 135.702 151.056 160.722 169.722 174.726 188.388 194.382 204.048 214.056 224.73 234.396 243.396 248.39999 261.396 273.06 277.72198 282.72601 291.72601 301.392 306.396 317.07001 326.73599 335.73599 344.73599 354.40201 364.41 370.07999 375.08401 379.07999 388.746 393.75 409.104 413.10001 422.76599 432.77399 442.09799"
           y="0"
           id="tspan5424">Pour que les 44èmes Grandes UAI se passent le mieux</tspan>
      </text>
      <text
         transform="matrix(1,0,0,-1,74.4095,513.5433)"
         style="font-variant:normal;font-weight:normal;font-stretch:normal;font-size:18px;font-family:HelveticaNeue;-inkscape-font-specification:HelveticaNeue;writing-mode:lr-tb;fill:#231f20;fill-opacity:1;fill-rule:nonzero;stroke:none"
         id="text5430">
        <tspan
           x="0 10.674 21.006001 30.006001 39.006001 43.001999 53.675999 57.672001 67.337997 72.342003 77.346001 87.012001 96.678001 102.672 108.342 118.008 122.004 132.01199 141.67799 150.67799 155.68201 161.67599 171.342 181.674 185.67 195.336 204.336 209.34 220.01401 229.67999 234.68401 243.68401 253.35001 263.01599 273.02399 279.01801 283.01401 288.68399 298.35001 303.354 313.686 323.694 329.36401 334.36801 344.034 349.70401 359.37 364.37399 379.728 383.724 392.724 402.39001 411.39001 416.39401 426.06 436.06799"
           y="0"
           id="tspan5428">possible, certaines règles de sécurité ont été mises en</tspan>
      </text>
      <text
         transform="matrix(1,0,0,-1,74.4095,489.5433)"
         style="font-variant:normal;font-weight:normal;font-stretch:normal;font-size:18px;font-family:HelveticaNeue;-inkscape-font-specification:HelveticaNeue;writing-mode:lr-tb;fill:#231f20;fill-opacity:1;fill-rule:nonzero;stroke:none"
         id="text5434">
        <tspan
           x="0 10.674 14.67 24.336 34.001999 43.667999 48.672001 53.675999 64.674004 68.669998 72.666 82.332001 91.332001 96.335999 105.336 115.668 125.676 131.34599 136.35001 147.024 156.69 162.36 172.026 176.022 180.01801 184.01401 193.67999 203.34599 212.34599 217.35001 228.024 237.69 247.698 256.698 261.702 265.698 275.36401 280.36801 293.36401 303.37201 313.03799 319.03201 324.702 334.36801 339.37201 350.04599 359.71201 364.716 377.04599 387.37799 397.38599 407.39401 417.06"
           y="0"
           id="tspan5432">place. Elles sont détaillées dans la Charte de Bonne</tspan>
      </text>
      <text
         transform="matrix(1,0,0,-1,74.4095,465.5433)"
         style="font-variant:normal;font-weight:normal;font-stretch:normal;font-size:18px;font-family:HelveticaNeue;-inkscape-font-specification:HelveticaNeue;writing-mode:lr-tb;fill:#231f20;fill-opacity:1;fill-rule:nonzero;stroke:none"
         id="text5438">
        <tspan
           x="0 12.996 23.327999 33.335999 44.009998 54.018002 58.014 63.683998 73.349998 78.353996 89.028 99.036003 108.702 113.706 119.376 129.384 134.388 144.054 153.054 158.058 167.058 171.054 181.386 191.394 201.06 210.726"
           y="0"
           id="tspan5436">Conduite que tu as signée.</tspan>
      </text>
      <text
         transform="matrix(1,0,0,-1,96.6929,141.5433)"
         style="font-variant:normal;font-weight:300;font-stretch:normal;font-size:10px;font-family:'Helvetica 45 Light';-inkscape-font-specification:HelveticaNeue-Light;writing-mode:lr-tb;fill:#231f20;fill-opacity:1;fill-rule:nonzero;stroke:none"
         id="text5442">
        <tspan
           x="0 5.9299998 11.3 24.16 29.35 34.540001 39.349998 52.209999 57.950001 63.139999 76 84.330002 89.519997 94.889999 100.63 106 111.19 119.52 124.71 130.08 133.03999 137.85001 150.71001 155.89999 168.75999 170.61 173.39 178.75999 184.13 196.99001 202.55 207.92 220.78 222.63 225.41 230.60001 235.97 238.92999 241.89999 247.09 259.95001 265.69 270.88 283.73999 288.92999 294.12 298.92999 311.79001 316.98001 322.35001 327.91 333.10001 338.66 343.85001 352.17999 357.37 362.73999 365.70001 370.51001 373.29001 386.14999 391.89001 397.07999 401.89001"
           y="0"
           id="tspan5440">En cas de manquements à l’un ou l’autre de ces engagements, des</tspan>
      </text>
      <text
         transform="matrix(1,0,0,-1,96.6929,129.5433)"
         style="font-variant:normal;font-weight:300;font-stretch:normal;font-size:10px;font-family:'Helvetica 45 Light';-inkscape-font-specification:HelveticaNeue-Light;writing-mode:lr-tb;fill:#231f20;fill-opacity:1;fill-rule:nonzero;stroke:none"
         id="text5446">
        <tspan
           x="0 4.8099999 10 15.37 20.559999 23.52 25.370001 30.93 36.299999 41.110001 56.759998 61.57 67.129997 72.5 75.459999 91.110001 96.300003 101.67 106.86 112.42 117.79 120.94 126.31 131.5 136.31 151.96001 157.14999 159 160.85001 166.03999 171.41 174.37 190.02 191.87 197.24001 202.05 207.78999 213.16 215.94 221.13 236.78 238.63 241.41 246.60001 251.97 257.16 262.35001 264.20001 269.01001 273.82001 279.01001 287.34 292.53 297.89999 300.85999 316.51001 322.25 327.62 343.26999 348.45999 353.82999 359.01999 364.76001 370.13 375.32001 390.97 396.70999 401.89999"
           y="0"
           id="tspan5444">sanctions sont encourues allant jusqu’à l’encaissement du chèque de</tspan>
      </text>
      <text
         transform="matrix(1,0,0,-1,96.6929,117.5433)"
         style="font-variant:normal;font-weight:300;font-stretch:normal;font-size:10px;font-family:'Helvetica 45 Light';-inkscape-font-specification:HelveticaNeue-Light;writing-mode:lr-tb;fill:#231f20;fill-opacity:1;fill-rule:nonzero;stroke:none"
         id="text5450">
        <tspan
           x="0 5.1900001 10.38 15.75 18.709999 20.559999 26.120001 31.49 45.667 51.227001 56.597 70.774002 79.103996 84.293999 92.624001 97.814003 111.99 113.84 116.62 121.81 126.62 131.81 133.66 139.03 143.84 145.69 151.25 156.62 170.797 176.537 181.72701 186.16701 191.537 193.38699 196.347 198.19701 202.827 208.017 222.19299 227.933 233.30299 247.48 252.67 257.85999 263.23001 266.19 269.16 274.35001 288.52701 293.71701 299.08701 304.827 310.19699 315.38699 317.237 331.414 334.37399 339.74399 353.92099 359.11099 364.85101 370.591 375.78101 378.931 381.89099 383.741 388.931 394.30099 399.11099"
           y="0"
           id="tspan5448">caution ou même l’exclusion défnitive du centre auquel tu appartiens.</tspan>
      </text>
      <text
         transform="matrix(1,0,0,-1,96.6929,93.5433)"
         style="font-variant:normal;font-weight:300;font-stretch:normal;font-size:10px;font-family:'Helvetica 45 Light';-inkscape-font-specification:HelveticaNeue-Light;writing-mode:lr-tb;fill:#231f20;fill-opacity:1;fill-rule:nonzero;stroke:none"
         id="text5454">
        <tspan
           x="0 5.9299998 11.3 19.43 24.620001 29.809999 34.619999 42.75 48.490002 51.27 56.459999 61.650002 66.839996 68.690002 74.43 79.620003 84.989998 87.949997 90.730003 98.860001 104.6 107.75 112.94 117.57 119.42 124.61 129.98 134.78999 142.92 144.77 153.10001 161.42999 166.62 172.36 174.21001 179.39999 182.36 187.55 195.88 201.07001 206.44 209.39999 217.52901 219.379 224.569 232.7 237.50999 242.7 247.89 253.25999 256.41 258.26001 261.22 266.41 269.19 277.319 279.16901 284.35901 289.16901 297.29999 305.63 310.82001 319.14999 324.89001 327.85901 333.04901 337.85901 345.98999 351.73001 356.92001 365.04999 366.89999 372.09 380.22 383.17999 388.37 393.56 401.89001"
           y="0"
           id="tspan5452">En cas d’accident, préviens immédiatement la sécurité, les membres de la team</tspan>
      </text>
      <text
         transform="matrix(1,0,0,-1,96.6929,81.5433)"
         style="font-variant:normal;font-weight:300;font-stretch:normal;font-size:10px;font-family:'Helvetica 45 Light';-inkscape-font-specification:HelveticaNeue-Light;writing-mode:lr-tb;fill:#231f20;fill-opacity:1;fill-rule:nonzero;stroke:none"
         id="text5458">
        <tspan
           x="0 7.4099998 10.56 15.75 21.120001 26.860001 32.049999 36.860001 44.162998 51.013 57.313 59.533001 66.835999 72.396004 77.765999 85.069 86.918999 92.109001 96.918999 104.222 110.522 117.932 122.742 130.04601 135.23599 140.606 145.79601 148.946 154.506 159.696 164.506 171.808 177.548 182.73801 190.04201 191.892 197.082 204.38499 209.19501 214.38499 219.575 224.94501 228.095 229.94501 232.905 238.095 245.39799 247.808 250.778 255.968 261.70801 266.89801 270.048 275.23801 280.978 282.828 288.01801 292.828 300.13101 305.871 311.061 314.211 321.51401 326.884 332.254 337.444 344.74701 349.37701 354.56699 359.37701 362.33701 367.52701 374.82999 377.79999 383.35999 388.73001 394.29001 399.48001"
           y="0"
           id="tspan5456">Grandes UAI ou les PGs chargés de la sécurité (repérables par une veste rouge)</tspan>
      </text>
      <path
         d="M 74.437,62.362 H 520.839 V 170.079 H 74.437 Z"
         style="fill:none;stroke:#000000;stroke-width:1;stroke-linecap:butt;stroke-linejoin:miter;stroke-miterlimit:4;stroke-dasharray:none;stroke-opacity:1"
         id="path5460" />
      <text
         y="-390.23532"
         x="134.37216"
         style="font-variant:normal;font-weight:bold;font-stretch:normal;font-size:12px;font-family:'Helvetica 55 Roman';-inkscape-font-specification:HelveticaNeue-Bold;writing-mode:lr-tb;fill:#231f20;fill-opacity:1;fill-rule:nonzero;stroke:none;stroke-width:1"
         id="text5382-1"
         transform="scale(1,-1)">
        <tspan
           style="stroke-width:1"
           id="tspan5380-8">Tu dois porter ta biaude et le bracelet de l’événement</tspan>
      </text>
    </g>
  </g>
</svg>
