<?xml version="1.0" encoding="UTF-8" standalone="no"?>
<!-- Generator: Adobe Illustrator 16.0.0, SVG Export Plug-In . SVG Version: 6.00 Build 0)  -->

<svg
   xmlns:dc="http://purl.org/dc/elements/1.1/"
   xmlns:cc="http://creativecommons.org/ns#"
   xmlns:rdf="http://www.w3.org/1999/02/22-rdf-syntax-ns#"
   xmlns:svg="http://www.w3.org/2000/svg"
   xmlns="http://www.w3.org/2000/svg"
   xmlns:sodipodi="http://sodipodi.sourceforge.net/DTD/sodipodi-0.dtd"
   xmlns:inkscape="http://www.inkscape.org/namespaces/inkscape"
   version="1.1"
   id="Calque_1"
   x="0px"
   y="0px"
   width="222.01205"
   height="28.363001"
   viewBox="0 0 222.01204 28.363"
   enable-background="new 0 0 595.28 841.89"
   xml:space="preserve"
   sodipodi:docname="Sports.svg"
   inkscape:version="0.92.1 r15371"
   inkscape:export-filename="B:\NAS Gaspard\Nouvelle organisation\Education et emploi\CV-Lettre\grandesuai2018.fr\css\2017_style\img\Sports.png"
   inkscape:export-xdpi="1015.4073"
   inkscape:export-ydpi="1015.4073"><metadata
     id="metadata65"><rdf:RDF><cc:Work
         rdf:about=""><dc:format>image/svg+xml</dc:format><dc:type
           rdf:resource="http://purl.org/dc/dcmitype/StillImage" /><dc:title /></cc:Work></rdf:RDF></metadata><defs
     id="defs63" /><sodipodi:namedview
     pagecolor="#ffffff"
     bordercolor="#666666"
     borderopacity="1"
     objecttolerance="10"
     gridtolerance="10"
     guidetolerance="10"
     inkscape:pageopacity="0"
     inkscape:pageshadow="2"
     inkscape:window-width="1920"
     inkscape:window-height="1001"
     id="namedview61"
     showgrid="false"
     fit-margin-top="0"
     fit-margin-left="0"
     fit-margin-right="0"
     fit-margin-bottom="0"
     inkscape:zoom="0.39643468"
     inkscape:cx="-488.36258"
     inkscape:cy="46.419304"
     inkscape:window-x="-9"
     inkscape:window-y="-9"
     inkscape:window-maximized="1"
     inkscape:current-layer="Calque_1" /><linearGradient
     id="SVGID_1_"
     gradientUnits="userSpaceOnUse"
     x1="-120.9468"
     y1="716.73138"
     x2="-120.9468"
     y2="716.73138"
     gradientTransform="matrix(131.7492,0,0,-131.7492,16061.397,94650.187)"><stop
       offset="0"
       style="stop-color:#FFFFFF"
       id="stop2" /><stop
       offset="0.1833"
       style="stop-color:#F4F3F3"
       id="stop4" /><stop
       offset="0.4628"
       style="stop-color:#DFDEDF"
       id="stop6" /><stop
       offset="0.8021"
       style="stop-color:#C0C0C2"
       id="stop8" /><stop
       offset="1"
       style="stop-color:#ACADB0"
       id="stop10" /></linearGradient><linearGradient
     id="SVGID_2_"
     gradientUnits="userSpaceOnUse"
     x1="-120.9468"
     y1="716.73138"
     x2="-120.9468"
     y2="716.73138"
     gradientTransform="matrix(131.7492,0,0,-131.7492,16061.397,94650.187)"><stop
       offset="0"
       style="stop-color:#FFFFFF"
       id="stop19" /><stop
       offset="0.1833"
       style="stop-color:#F4F3F3"
       id="stop21" /><stop
       offset="0.4628"
       style="stop-color:#DFDEDF"
       id="stop23" /><stop
       offset="0.8021"
       style="stop-color:#C0C0C2"
       id="stop25" /><stop
       offset="1"
       style="stop-color:#ACADB0"
       id="stop27" /></linearGradient><path
     d="m 12.170763,5.699 c 0.503,0.346 1.112,0.551 1.769,0.551 0.655,0 1.265,-0.205 1.768,-0.551 -0.479,-0.402 -1.096,-0.646 -1.768,-0.646 -0.672,0 -1.29,0.244 -1.769,0.646"
     id="path36"
     inkscape:connector-curvature="0"
     style="fill:#676767" /><path
     d="m 15.706763,0.563 c -0.504,-0.348 -1.112,-0.551 -1.768,-0.551 -0.658,0 -1.267,0.203 -1.769,0.551 0.478,0.4 1.095,0.645 1.769,0.645 0.672,-10e-4 1.29,-0.245 1.768,-0.645"
     id="path38"
     inkscape:connector-curvature="0"
     style="fill:#676767" /><path
     d="m 11.618763,5.211 c 0.618,-0.553 1.428,-0.893 2.32,-0.893 0.891,0 1.701,0.34 2.32,0.893 0.494,-0.553 0.799,-1.279 0.799,-2.08 0,-0.801 -0.305,-1.527 -0.799,-2.08 -0.619,0.553 -1.43,0.889 -2.32,0.889 -0.893,0 -1.702,-0.338 -2.32,-0.889 -0.495,0.553 -0.8,1.279 -0.8,2.08 0,0.801 0.305,1.527 0.8,2.08"
     id="path40"
     inkscape:connector-curvature="0"
     style="fill:#676767" /><path
     d="m 27.388763,25.033 -6.467,-6.467 c -0.222,-0.221 -0.49,-0.363 -0.772,-0.434 -1.597,-2.002 -1.942,-4.219 -2.013,-5.111 0.545,-2.322 0.039,-5.025 -1.457,-7.416 -0.563,0.625 -1.336,1.055 -2.207,1.18 l 0.318,0.32 -1.439,1.438 -1.438,-1.439 0.574,-0.572 c -0.294,-0.125 -0.565,-0.289 -0.813,-0.484 l -0.408,0.41 L 9.8277635,5.019 10.464763,4.382 c -0.123,-0.342 -0.197,-0.705 -0.214,-1.084 l -1.0709995,1.072 -1.438,-1.439 1.325,-1.324 c 0.104,0.023 0.206,0.053 0.309,0.08 l 0.9109995,0.912 c 0.097,-0.67 0.37,-1.281 0.774,-1.783 -3.2679995,-1.355 -6.7949995,-1.006 -9.0279995,1.229 -3.181,3.18 -2.56000004,8.973 1.382,12.914 2.801,2.799 6.532,3.914 9.5999995,3.191 0.895,0.068 3.103,0.412 5.108,2.014 0.072,0.281 0.211,0.551 0.433,0.773 l 6.468,6.467 c 0.655,0.654 1.714,0.654 2.368,0 0.654,-0.654 0.651,-1.716 -0.003,-2.371 m -10.493,-12.947 -0.808,-0.807 0.85,-0.85 c 0.048,0.567 0.035,1.12 -0.042,1.657 m -0.243,1.055 c -0.222,0.678 -0.563,1.305 -1.024,1.852 l -1.627,-1.627 1.438,-1.438 z m -1.213,-5.389 1.243,1.246 c 0.029,0.102 0.058,0.205 0.08,0.309 l -1.323,1.322 -1.44,-1.438 z m -0.649,3.527 -1.439,1.438 -1.438,-1.439 1.438,-1.438 z m -8.3479995,-0.002 -1.439,1.439 -1.438,-1.438 1.438,-1.439 z m -2.878,-4.173 1.438,-1.438 1.439,1.438 -1.439,1.439 z m 2.087,2.087 1.439,-1.439 1.438,1.439 -1.438,1.438 z m 3.526,0.647 1.4389995,1.439 -1.4389995,1.439 -1.438,-1.439 z m 2.0879995,2.09 1.438,1.438 -1.438,1.439 -1.4389995,-1.439 z m 1.438,-2.737 -1.438,1.438 L 9.8267635,9.191 11.265763,7.752 Z M 9.1777635,5.666 10.616763,7.105 9.1777635,8.543 l -1.438,-1.438 z m -0.648,-0.648 -1.438,1.439 -1.439,-1.439 1.439,-1.439 z m -0.591,-3.584 -0.85,0.848 -0.808,-0.807 c 0.538,-0.079 1.093,-0.092 1.658,-0.041 m -2.709,0.283 1.212,1.213 -1.438,1.439 -1.627,-1.627 c 0.549,-0.461 1.174,-0.803 1.853,-1.025 m -2.501,1.674 1.627,1.627 -1.438,1.438 -1.215,-1.213 c 0.223,-0.68 0.565,-1.305 1.026,-1.852 m -1.268,2.904 0.807,0.809 -0.848,0.85 c -0.05,-0.567 -0.037,-1.122 0.041,-1.659 m 0.131,2.783 1.326,-1.326 1.438,1.439 -1.439,1.438 -1.244,-1.242 c -0.028,-0.104 -0.058,-0.207 -0.081,-0.309 m 2.474,4.578 c -0.477,-0.518 -0.896,-1.064 -1.248,-1.631 l 0.098,-0.098 1.439,1.438 z m 2.278,1.895 c -0.567,-0.352 -1.111,-0.771 -1.629,-1.248 l 0.289,-0.289 1.438,1.439 z m -0.692,-2.186 1.439,-1.438 1.438,1.438 -1.438,1.439 z m 3.332,3.332 -1.245,-1.244 1.438,-1.439 1.4389995,1.439 -1.3259995,1.324 c -0.101,-0.023 -0.204,-0.052 -0.306,-0.08 m 1.4309995,0.254 0.851,-0.852 0.808,0.809 c -0.536,0.078 -1.092,0.092 -1.659,0.043 m 2.712,-0.285 -1.213,-1.213 1.438,-1.439 1.628,1.627 c -0.548,0.461 -1.173,0.802 -1.853,1.025 m 5.426,1.9 c -0.086,0.086 -0.16,0.18 -0.222,0.277 -1.133,-0.791 -2.284,-1.258 -3.258,-1.525 0.451,-0.273 0.872,-0.596 1.254,-0.979 0.381,-0.381 0.705,-0.803 0.978,-1.254 0.269,0.975 0.734,2.125 1.524,3.258 -0.098,0.065 -0.19,0.137 -0.276,0.223"
     id="path42"
     inkscape:connector-curvature="0"
     style="fill:#676767" /><path
     d="m 60.621763,15.686 c -0.037,0 -0.073,0.006 -0.11,0.006 l -0.257,-2.055 h -0.295 l -0.272,-2.133 c -0.039,-0.297 -0.291,-0.52 -0.592,-0.52 h -0.271 c 0.021,-0.402 -0.146,-0.805 -0.49,-1.068 l -6.107,-4.684 c -0.012,-0.008 -0.022,-0.016 -0.033,-0.023 -0.032,-0.025 -0.065,-0.051 -0.1,-0.074 -1.264,-0.918 -3.033,-0.635 -3.949,0.629 l -4.715,6.504 c -0.224,0.309 -0.375,0.646 -0.459,0.994 h -0.172 c -0.398,0 -0.721,0.322 -0.721,0.721 v 0.266 c 0,0.398 0.322,0.721 0.721,0.721 h 0.291 c 0.082,0.207 0.189,0.406 0.319,0.592 -0.136,0.119 -0.218,0.193 -0.218,0.193 -0.293,-0.043 -0.59,-0.068 -0.895,-0.068 -3.468,0 -6.279,2.809 -6.279,6.279 0,3.469 2.812,6.281 6.28,6.281 3.468,0 6.28,-2.813 6.28,-6.281 0,-0.367 -0.039,-0.727 -0.1,-1.076 l 1.498,-0.619 0.006,3.836 c -0.155,0.193 -0.25,0.439 -0.25,0.707 0,0.623 0.508,1.131 1.132,1.131 h 2.575 c 0.623,0 1.132,-0.508 1.132,-1.131 0,-0.623 -0.509,-1.131 -1.132,-1.131 h -0.441 l -0.008,-4.66 2.936,-1.213 c -0.984,1.107 -1.582,2.561 -1.582,4.158 0,3.467 2.811,6.279 6.28,6.279 3.469,0 6.28,-2.811 6.28,-6.279 -0.002,-3.472 -2.812,-6.282 -6.282,-6.282 m -7.767,-6.803 3.949,3.027 c 0.229,0.174 0.488,0.268 0.893,0.268 h 0.873 l 0.186,1.459 h -0.195 l 0.006,0.002 h -9.146 z m -10.556,18.221 c -2.834,0 -5.138,-2.303 -5.138,-5.137 0,-2.836 2.305,-5.139 5.138,-5.139 0.838,0 1.619,0.223 2.316,0.578 l -2.778,4.721 c 0,0 -0.38,0.617 -0.006,1.021 0.347,0.371 0.985,0.084 0.985,0.084 l 4.557,-1.885 c 0.023,0.205 0.061,0.406 0.061,0.619 0.002,2.835 -2.302,5.138 -5.135,5.138 m 3.592,-8.801 c 0.445,0.436 0.807,0.959 1.072,1.533 l -2.613,1.08 z m 2.134,1.095 c -0.362,-0.809 -0.891,-1.523 -1.543,-2.105 l 0.233,-0.396 2.716,1.92 z m 4.732,-1.925 -3.231,-2.283 h 8.664 z m 7.865,9.631 c -2.833,0 -5.136,-2.303 -5.136,-5.137 0,-2.287 1.507,-4.205 3.574,-4.869 l 0.614,4.861 c 0.066,0.516 0.476,0.891 0.919,0.834 0.444,-0.055 0.748,-0.52 0.684,-1.035 l -0.622,-4.926 c 2.819,0.018 5.104,2.313 5.104,5.135 0.001,2.834 -2.303,5.137 -5.137,5.137"
     id="path44"
     inkscape:connector-curvature="0"
     style="fill:#676767" /><path
     d="m 55.198763,6.229 c 1.671,0 3.023,-1.354 3.023,-3.025 0,-1.67 -1.353,-3.023 -3.023,-3.023 -1.67,0 -3.025,1.354 -3.025,3.023 0,1.671 1.354,3.025 3.025,3.025"
     id="path46"
     inkscape:connector-curvature="0"
     style="fill:#676767" /><path
     d="m 100.97376,11.547 -3.184997,-1.061 -1.572,-3.693 -3.207,-1.086 v 0 l -1.945,-4.068 -3.762,-1.637 -9.984,19.541 0.066,0.07 c -0.338,0.102 -0.688,0.316 -1.061,0.691 -1.764,1.764 -1.764,4.619 0,6.383 1.762,1.764 4.619,1.764 6.382,0 0.376,-0.373 0.589,-0.725 0.69,-1.063 l 0.024,0.025 19.542997,-9.988 z m -22.448997,8.144 -0.291,-0.291 4.396,-8.6 c 0.879,1.697 1.827,3.117 2.785,4.299 l -4.786,6.307 c -0.752,-0.763 -1.425,-1.427 -2.104,-1.715 m 7.383,-4.002 c 0.334,0.383 0.668,0.746 0.996,1.074 0.217,0.217 0.428,0.416 0.637,0.607 l -6.264,4.422 z m -2.342,9.041 -0.248,-0.246 c -0.28,-0.662 -0.918,-1.316 -1.656,-2.045 l 6.46,-4.557 c 1.647,1.391 3.1,2.143 3.946,2.504 z"
     id="path48"
     inkscape:connector-curvature="0"
     style="fill:#676767" /><path
     d="m 139.08476,1.332 c 0,0 -9.303,-5.082 -19.897,5.514 -10.694,10.695 -5.517,19.902 -5.517,19.902 0,0 9.302,5.084 19.9,-5.514 11.366,-11.365 5.514,-19.902 5.514,-19.902 m -8.729,9.689 2.065,2.059 -0.861,0.865 -2.064,-2.063 -1.106,1.109 2.059,2.061 -0.862,0.863 -2.062,-2.061 -1.194,1.193 1.97,1.965 -0.866,0.863 -1.965,-1.967 -1.248,1.246 1.966,1.967 -0.861,0.863 -1.969,-1.967 -8.434,8.439 -0.866,-0.863 8.44,-8.439 -2.352,-2.35 0.866,-0.861 2.345,2.348 1.25,-1.246 -2.351,-2.352 0.863,-0.861 2.35,2.35 1.191,-1.193 -2.251,-2.254 0.861,-0.863 2.255,2.254 1.104,-1.107 -2.25,-2.256 0.863,-0.863 2.254,2.254 8.44,-8.436 0.862,0.861 z"
     id="path50"
     inkscape:connector-curvature="0"
     style="fill:#676767" /><path
     d="m 164.02576,0 c -7.813,0 -14.169,6.357 -14.169,14.17 0,7.814 6.355,14.17 14.169,14.17 7.813,0 14.169,-6.355 14.169,-14.17 0,-7.813 -6.356,-14.17 -14.169,-14.17 m 4.545,26.877 c -1.266,0.451 -2.616,0.723 -4.023,0.775 5.167,-6.066 4.207,-14.252 4.031,-15.465 1.353,-0.529 2.965,-0.945 4.78,-1.008 0.271,1.387 1.3,8.587 -4.788,15.698 m -7.533,-4.17 c -1.251,-0.404 -7.378,-2.75 -10.344,-10.621 0.268,-1.719 0.856,-3.33 1.711,-4.771 1.639,7.943 7.286,10.939 10.457,11.494 -0.371,1.218 -0.943,2.57 -1.824,3.898 m 3.157,-7.912 c 0.295,-0.264 1.642,-1.412 3.754,-2.348 0.214,1.621 0.932,9.539 -4.293,15.211 -1.847,-0.049 -3.602,-0.469 -5.194,-1.193 5.187,-4.09 5.693,-10.053 5.733,-11.67 m -0.355,-0.565 c -0.509,-0.268 -2.099,-1.184 -3.709,-2.863 0.773,-0.625 7.542,-5.848 15.494,-4.09 0.664,1.111 1.17,2.324 1.492,3.611 -7.077,-1.613 -12.301,2.501 -13.277,3.342 m 11.3,-7.726 c -8.063,-1.439 -14.792,3.836 -15.455,4.375 -0.833,-0.947 -1.642,-2.107 -2.28,-3.49 0.967,-0.861 6.411,-5.238 15.312,-3.549 0.92,0.775 1.734,1.672 2.423,2.664 m -3.53,-3.508 c -8.04,-1.08 -13.148,2.639 -14.479,3.76 -0.43,-1.07 -0.755,-2.264 -0.912,-3.59 2.207,-1.57 4.897,-2.508 7.809,-2.508 2.807,0 5.418,0.865 7.582,2.338 m -15.998,0.621 c 1.044,7.203 6.788,10.594 7.923,11.197 -0.015,0.609 -0.102,1.84 -0.494,3.354 -1.513,-0.305 -8.528,-2.215 -10.131,-11.658 0.755,-1.094 1.667,-2.065 2.702,-2.893 m -5.095,10.553 c 0,-0.236 0.022,-0.467 0.034,-0.699 3.06,6.889 8.49,9.238 10.096,9.797 -0.743,1.012 -1.678,1.994 -2.852,2.877 -4.318,-2.258 -7.278,-6.774 -7.278,-11.975 m 19.409,12.135 c 5.197,-6.789 4.443,-13.443 4.139,-15.133 1.019,0.018 2.096,0.152 3.22,0.436 0.16,0.83 0.25,1.684 0.25,2.561 0.002,5.333 -3.113,9.94 -7.609,12.136"
     id="path52"
     inkscape:connector-curvature="0"
     style="fill:#676767" /><path
     d="m 196.83576,15.379 c 2.413,0.299 4.664,1.066 6.751,2.031 1.013,0.473 2.097,1.094 2.944,1.576 0.851,0.5 1.713,0.953 2.586,1.395 l -5.29,-10.473 -1.117,-1.965 -3.946,-6.916 c -0.558,-0.975 -1.798,-1.314 -2.775,-0.76 -0.979,0.561 -1.315,1.801 -0.757,2.777 l 4.365,7.654 -1.117,0.99 -6.673,3.805 -0.155,0.088 c 1.718,-0.362 3.495,-0.415 5.184,-0.202"
     id="path54"
     inkscape:connector-curvature="0"
     style="fill:#676767" /><path
     d="m 213.39976,14.953 c 2.107,-1.203 2.842,-3.887 1.643,-5.994 -1.203,-2.102 -3.885,-2.838 -5.992,-1.635 -2.103,1.201 -2.844,3.889 -1.641,5.988 1.198,2.112 3.889,2.844 5.99,1.641"
     id="path56"
     inkscape:connector-curvature="0"
     style="fill:#676767" /><path
     d="m 221.72276,18.234 c -0.623,2.068 -1.607,3.99 -3.01,4.98 -1.362,0.994 -2.919,1.057 -4.631,0.711 -1.708,-0.357 -3.479,-1.088 -5.213,-1.963 -0.877,-0.443 -1.742,-0.896 -2.593,-1.4 -0.85,-0.482 -1.936,-1.102 -2.948,-1.574 -2.085,-0.963 -4.336,-1.734 -6.752,-2.033 -2.396,-0.301 -4.975,-0.102 -7.302,0.822 -2.333,0.908 -4.312,2.504 -5.68,4.381 -1.345,1.9 -2.276,4.004 -2.512,6.205 2.617,-3.463 5.952,-5.945 9.415,-6.527 3.453,-0.633 7.045,0.406 10.531,2.045 0.907,0.412 1.672,0.828 2.672,1.365 1.006,0.506 2.035,1 3.093,1.412 2.126,0.818 4.411,1.492 6.931,1.508 1.251,0.004 2.577,-0.17 3.83,-0.689 1.264,-0.508 2.393,-1.402 3.125,-2.473 1.437,-2.205 1.585,-4.65 1.044,-6.77"
     id="path58"
     inkscape:connector-curvature="0"
     style="fill:#676767" /></svg>